<?xml version="1.0" encoding="utf-8"?>
<!-- Generator: Adobe Illustrator 16.0.3, SVG Export Plug-In . SVG Version: 6.00 Build 0)  -->
<!DOCTYPE svg PUBLIC "-//W3C//DTD SVG 1.1//EN" "http://www.w3.org/Graphics/SVG/1.1/DTD/svg11.dtd">
<svg version="1.1" id="Capa_1" xmlns="http://www.w3.org/2000/svg" xmlns:xlink="http://www.w3.org/1999/xlink" x="0px" y="0px"
	 width="838px" height="473px" viewBox="0 0 838 473" enable-background="new 0 0 838 473" xml:space="preserve">
<g transform="translate(0.000000,473.000000) scale(0.100000,-0.100000)">
	<path d="M4705.002,4638.999c-458.008-22.998-959.004-106.997-1340-223.999c-422.998-131.001-762.998-293.999-1029.004-495
		c-95.996-72.002-195.996-167.998-160.996-155c115,42.998,372.998,123.999,510,160c560,147.002,1127.998,207.002,1805,191.001
		c483.994-12.002,811.992-48.003,1215-136.001c346.992-76.001,740-205,995-327.002c262.998-126.997,437.998-235,610-380
		C7535.002,3085,7663,2923.999,7750.998,2720c57.002-132.002,69.004-197.998,69.004-372.998v-151.006l70.996,69.004
		c159.004,156.001,279.004,340,330.997,505c20,66.001,23.008,95,23.008,245c0,147.998-3.008,180-23.008,250
		c-45.997,160-152.999,327.002-305.997,480c-242.998,242.002-530.996,413.999-975.996,583.999
		c-242.002,93.003-467.002,153.003-835,225c-193.008,37.002-496.006,71.001-785,86.001C5100.998,4651,4953,4651,4705.002,4638.999z"
		/>
	<path fill="#FF3131" d="M3765.002,3633.999c-122.998-3.999-354.004-21.001-455-33.999c-41.006-5-132.998-17.002-205-25
		c-567.002-67.002-1161.006-237.002-1535-437.998c-297.998-160-477.002-326.001-560-517.002c-35-80-41.006-260-11.006-344.004
		C1057.004,2110,1233,1924.004,1460.002,1789.004c470.996-282.002,1205-474.004,2090-546.006c257.998-22.002,946.992-23.994,1185-5
		c312.998,25,466.992,42.998,745,87.998c277.998,45,626.992,130,840,203.008c193.994,67.998,468.994,192.998,603.994,273.994
		C7101.994,1910,7255.998,2065,7323,2202.998c97.002,197.002,82.002,358.003-51.006,555
		c-122.998,181.001-477.998,411.001-821.992,533.003c-467.002,165-891.006,256.001-1465,315c-27.002,2.998-86.006,8.999-130,15
		C4775.998,3631,3958.996,3640,3765.002,3633.999z M4685.002,3598.999c531.992-30,1088.994-125,1501.992-253.999
		c640-202.002,1024.004-458.999,1139.004-762.002c22.998-60.996,25.996-78.999,22.002-168.999
		c-4.004-86.001-9.004-109.995-35-166.997c-40-85-66.006-121.006-137.998-199.004c-137.002-145.996-351.006-285.996-585-382.002
		c-36.006-15-80-33.994-97.002-41.992c-46.006-21.006-302.998-108.008-392.998-133.008c-72.002-20-202.002-51.992-340-83.994
		C5558,1360,5208,1305.996,4963.996,1285c-97.998-7.998-198.994-17.002-223.994-20c-140-15.996-547.002-24.004-804.004-15
		c-705.996,25.996-1340.996,127.002-1848.994,294.004c-553.008,182.998-935,441.992-1043.008,706.992
		c-117.998,289.004,46.006,573.003,473.008,820.005C2205.002,3470,3417.004,3672.001,4685.002,3598.999z"/>
	<path d="M3470.002,3067.998c-72.998-43.999-110-105-117.002-190.996c-5.996-76.001,5-103.003,77.002-183.003
		c38.994-41.997,50-61.997,50-86.997c0-43.003-10-55-47.002-63.003c-24.004-5-35.996-1.001-52.998,16.001
		c-26.006,26.001-37.002,18.999-22.002-15c37.002-80,159.004-3.999,170,105c4.004,46.001,2.998,47.998-57.002,112.002
		c-70,75-92.998,120-85,168.999c12.002,75,67.998,108.999,176.006,108.999c41.992,0,78.994-3.999,81.992-8.999
		c9.004-15-40.996-266.001-73.994-373.999c-70-223.003-217.998-460-357.002-569.004c-147.002-115-295-150-465.996-112.002
		c-104.004,24.004-175,58.008-230,112.002c-85,82.998-119.004,182.998-97.002,289.004c15.996,72.998,78.994,140,162.998,171.997
		c140.996,52.002,374.004,1.001,610.996-133.999c44.004-25,87.002-45,95-45c17.002,1.001,51.006,22.998,51.006,33.999
		c0,12.002-141.006,98.003-234.004,142.002c-260.996,123.999-490,111.001-637.002-36.001
		c-108.994-108.999-115-310.996-13.994-444.004c68.994-90,240.996-165.996,373.994-165.996c300,2.002,591.006,280.996,781.006,750
		c42.998,105,98.994,302.998,115,407.998l7.002,42.002H3628C3528.996,3100,3522.004,3098.999,3470.002,3067.998z"/>
	<path d="M3800.998,2897.998c-17.998-38.999-42.998-98.999-55.996-131.997c-12.998-33.999-44.004-108.003-69.004-165
		c-25-57.002-45.996-107.002-45.996-112.002s8.994-8.999,20.996-8.999c16.006,0,27.998,16.001,52.002,68.999
		c37.002,80,32.998,78.999,187.002,71.001l95-5l32.998-67.002c30-62.998,52.002-81.997,67.002-57.998
		c2.998,5-7.002,40-23.008,77.002C4045.998,2605,4005.002,2700,3970.998,2780c-83.994,196.001-80,190-110.996,190
		C3835.998,2970,3828.996,2962.002,3800.998,2897.998z M3910.002,2791.001c22.002-50,40-98.003,40-106.001c0-12.002-15-15-74.004-15
		c-80,0-105.996,6.001-105.996,23.999c0,23.999,85,205,92.998,197.002C3867.004,2887.002,3888.996,2842.002,3910.002,2791.001z"/>
	<path d="M4135.002,2960c-4.004-6.001-1.006-17.002,5-25c10-12.002,42.998-15,155.996-15c92.998,0,144.004-3.999,144.004-10
		s-28.008-43.999-62.002-83.999c-175-203.003-247.998-298.003-247.998-322.002V2480h190.996h190l-2.998,22.998
		c-2.998,22.002-6.006,22.002-150,25c-95,2.002-147.998,6.001-147.998,13.003c0,6.001,21.992,36.001,47.998,66.997
		c243.994,289.004,252.002,299.004,252.002,334.004V2970h-184.004C4208,2970,4138.996,2966.001,4135.002,2960z"/>
	<path d="M4603.996,2957.002c-2.002-7.002-2.998-116.001-2.002-242.002l3.008-230h175c167.998,0,175,1.001,175,20s-8.008,20-150,25
		l-150,5l2.998,80c2.002,43.999,5,81.001,7.998,83.999c2.002,2.002,45.996,3.999,95.996,3.003
		C4873,2701.001,4925.002,2710,4925.002,2730c0,12.002-26.006,16.001-135,20l-135,5l1.992,70
		c1.006,38.999,2.002,72.998,3.008,77.998c0,4.004,65,7.002,143.994,7.002c136.006,0,145,1.001,151.006,20
		c2.998,11.001,2.998,23.999,0,30C4945.002,2976.001,4610.998,2972.998,4603.996,2957.002z"/>
	<path d="M5050.002,2726.001V2480h25c23.994,0,23.994,2.002,26.992,92.998l3.008,92.002l77.998,2.998
		c50,2.002,83.994-0.996,92.998-8.999c7.998-6.001,35-46.997,60.996-91.001c44.004-73.999,72.002-96.997,102.002-85.996
		c5,0.996-17.002,43.999-50,92.998c-32.002,50-58.994,92.998-58.994,96.001c0,2.998,17.998,13.999,38.994,23.999
		c96.006,42.998,95,200-0.996,252.002c-26.006,13.999-62.998,17.998-175,20.996l-142.998,4.004V2726.001z M5358,2890
		c28.994-17.998,32.002-23.999,32.002-68.999c0-38.999-5-55-22.002-71.001c-31.006-27.998-47.998-31.001-162.998-27.998l-100,2.998
		l-3.008,78.999c-1.992,43.999-0.996,85,2.002,93.003c4.004,10,32.002,12.998,112.998,12.998
		C5306.994,2910,5330.002,2907.002,5358,2890z"/>
	<path d="M3995.002,2180.996c-27.998-11.992-54.004-42.998-56.006-66.992c-6.992-68.008,12.002-86.006,121.006-115
		c98.994-26.006,110-33.008,110-75c0-31.006-4.004-37.002-37.002-51.006c-66.006-27.002-172.998,6.006-172.998,54.004
		c0,7.002-7.002,12.998-15,12.998c-24.004,0-17.002-37.002,13.994-72.002c29.004-32.002,32.002-32.998,110-32.998
		c75,0,82.002,2.002,110,29.004c30,28.994,39.004,63.994,25,100.996c-8.994,22.002-67.998,50-133.994,64.004
		c-69.004,15-100,35-100,65c0,37.998,30,55.996,93.994,55.996c51.006,0,60-2.998,84.004-30c20-20.996,30.996-27.002,42.002-20
		c17.998,12.002,5.996,34.004-33.008,64.004C4128,2185.996,4030.002,2195.996,3995.002,2180.996z"/>
	<path d="M4250.998,1995.996c-9.004-10-10-35.996-4.004-87.998l8.008-72.998l43.994-2.998c67.002-5,87.002,10.996,21.006,17.998
		c-51.006,5-55,7.002-58.008,32.998c-2.998,25-0.996,27.002,37.002,27.002c22.002,0,42.998,5,46.006,10c3.994,5.996-10,10-34.004,10
		c-44.004,0-55.996,10-45.996,40c5,15.996,15,20,55.996,20c27.002,0,49.004,5,49.004,10
		C4370.002,2015.996,4263.996,2012.002,4250.998,1995.996z"/>
	<path d="M4420.002,1984.004c-13.008-33.008-13.008-131.006,0-139.004c5.996-4.004,10,7.002,10,24.004
		c0,27.998,2.998,30.996,32.998,30.996c38.994,0,48.994-7.002,63.994-42.002c7.002-15.996,17.002-27.998,23.008-27.998
		c12.998,0,12.998,5.996-4.004,37.998c-12.002,22.998-12.002,31.006,0,52.002c7.002,14.004,12.998,32.998,14.004,42.002
		c0,25.996-40,47.998-87.002,47.998C4435.998,2010,4428,2005.996,4420.002,1984.004z M4530.002,1970.996
		c18.994-35.996,1.992-51.992-49.004-48.994c-40,2.998-45.996,5.996-49.004,27.002c-3.994,28.994,12.002,40.996,55,40.996
		C4508.996,1990,4523,1984.004,4530.002,1970.996z"/>
	<path d="M4848.996,1980.996c-20-20-28.994-38.994-28.994-60.996c0-40,46.992-90,85-90c31.992,0,65,15.996,65,32.002
		c0,8.994-3.008,8.994-12.002,0c-17.002-17.002-69.004-15-96.006,3.994c-15,11.006-21.992,25-21.992,50
		c0,59.004,56.992,92.002,110.996,64.004c12.002-7.002,19.004-7.002,19.004-0.996c0,5.996-9.004,15-19.004,20.996
		C4915.998,2017.998,4880.002,2010.996,4848.996,1980.996z"/>
	<path d="M5123.996,1997.998c-42.002-20-57.998-93.994-28.994-135c18.994-27.002,76.992-40,110-25
		c12.998,6.006,30.996,25,38.994,41.006C5285.002,1957.998,5205.002,2037.998,5123.996,1997.998z M5220.002,1970
		c43.994-44.004,10.996-120-52.002-120c-42.002,0-67.998,25-67.998,67.002s30,72.998,70,72.998
		C5186.994,1990,5208.996,1980.996,5220.002,1970z"/>
	<path d="M5305.998,1994.004c-9.004-8.008-15.996-19.004-15.996-24.004c0-19.004,37.998-47.998,77.998-59.004
		c35.996-10,42.998-15.996,40-33.994c-2.002-17.998-11.006-22.998-42.002-25c-20.996-2.002-42.998,0.996-49.004,7.002
		c-5.996,5.996-15.996,10.996-20.996,10.996c-27.002-0.996,40-40,67.998-40c42.002,0,56.006,10.996,59.004,45
		c2.002,27.002-2.998,30.996-52.998,50.996c-38.008,16.006-55,28.008-55,41.006c0,22.002,52.998,30,85,12.998
		c12.998-7.002,20-7.002,20-0.996C5420.002,2009.004,5331.994,2020.996,5305.998,1994.004z"/>
	<path d="M4605.998,1937.998c14.004-35,30-72.998,34.004-85c5-12.998,12.998-22.998,16.992-22.998c10,0,85,160.996,78.008,167.998
		c-10,10-25-12.998-43.008-67.998c-10.996-30-25-55-31.992-55c-7.002,0-23.008,27.002-35,60
		c-12.002,32.002-27.002,60.996-33.008,62.998C4585.998,2000,4591.994,1972.998,4605.998,1937.998z"/>
	<path d="M4770.002,1920c0-47.002,3.994-80,10-80c5.996,0,10,32.998,10,80s-4.004,80-10,80
		C4773.996,2000,4770.002,1967.002,4770.002,1920z"/>
	<path d="M5030.002,1920c0-47.002,3.994-80,10-80c5.996,0,10,32.998,10,80s-4.004,80-10,80
		C5033.996,2000,5030.002,1967.002,5030.002,1920z"/>
	<path d="M438.997,2452.998C287.004,2294.004,183,2125,138,1960c-19.004-72.002-22.998-107.998-22.002-230
		c1.006-127.002,4.004-155.996,27.002-232.998c125-411.006,532.998-770,1172.002-1032.002c147.002-60,355-125.996,577.998-185
		c865.996-225,2000.996-225.996,2867.001-4.004c365,94.004,595,176.006,848.994,303.008c169.004,85,347.002,188.994,337.998,197.998
		c-1.992,0.996-25.996-4.004-52.998-11.006c-203.994-60-735-145-1067.998-171.992c-267.002-21.006-925.996-15-1160.996,10
		c-585,62.998-1222.002,198.994-1642.002,350c-360,130-640.996,275-880,455c-302.998,228.994-492.002,472.998-567.002,735
		C553,2222.002,550.002,2250,550.002,2391.001c0,87.998-4.004,158.999-7.998,158.999
		C537.004,2550,490.999,2506.001,438.997,2452.998z"/>
</g>
</svg>
